<svg id="LOGO_W_x30_2x" data-name="LOGO_W_x30@2x" xmlns="http://www.w3.org/2000/svg" width="159.894" height="20.261" viewBox="0 0 159.894 20.261">
  <path id="패스_388" data-name="패스 388" d="M20.22,10.11A10.12,10.12,0,0,0,10.16,0H.34A.34.34,0,0,0,0,.34V19.87a.34.34,0,0,0,.34.34H10.49a10.13,10.13,0,0,0,9.73-10.1ZM3.87,3.87h6.24a6.24,6.24,0,0,1,0,12.48H3.87Z" fill="#090405"/>
  <path id="패스_389" data-name="패스 389" d="M44.082,11.841A6,6,0,0,0,42.562.031H29.932a.34.34,0,0,0-.33.34V19.9a.34.34,0,0,0,.33.34h3.2a.339.339,0,0,0,.33-.34v-7.82h6.22l4.83,7.84a.67.67,0,0,0,.57.32h4a.12.12,0,0,0,.055-.018.118.118,0,0,0,.04-.041.119.119,0,0,0,.006-.111Zm-10.63-8h9.08a2.155,2.155,0,1,1,0,4.31h-9.08Z" fill="#090405"/>
  <path id="패스_390" data-name="패스 390" d="M62.882,16.391v-4.3h11.44a.339.339,0,0,0,.33-.34V8.561a.339.339,0,0,0-.33-.34H62.882V3.911h13a.339.339,0,0,0,.33-.34V.391a.339.339,0,0,0-.33-.34H59.322a.339.339,0,0,0-.33.34V19.92a.339.339,0,0,0,.33.34h16.56a.339.339,0,0,0,.33-.34V16.75a.34.34,0,0,0-.34-.34Z" fill="#090405"/>
  <path id="패스_391" data-name="패스 391" d="M146.554,16.391v-4.3h11.44a.337.337,0,0,0,.13-.026.343.343,0,0,0,.184-.184.344.344,0,0,0,.026-.13V8.561a.341.341,0,0,0-.34-.34h-11.44V3.911h13a.338.338,0,0,0,.24-.1.333.333,0,0,0,.074-.11.341.341,0,0,0,.026-.13V.391a.341.341,0,0,0-.34-.34H143a.341.341,0,0,0-.34.34V19.92a.341.341,0,0,0,.34.34h16.55a.341.341,0,0,0,.34-.34V16.75a.341.341,0,0,0-.026-.13.343.343,0,0,0-.184-.184.337.337,0,0,0-.13-.026Z" fill="#090405"/>
  <path id="패스_392" data-name="패스 392" d="M129.9.25l-7,8.53-7-8.53a.643.643,0,0,0-.23-.186.653.653,0,0,0-.29-.064h-2.73a.338.338,0,0,0-.24.1.349.349,0,0,0-.074.11.363.363,0,0,0-.026.13V19.87a.363.363,0,0,0,.026.13.34.34,0,0,0,.314.209h3.2a.342.342,0,0,0,.33-.34V6.68l6.489,7.88a.341.341,0,0,0,.4.089.338.338,0,0,0,.116-.089l6.471-7.88V19.87a.339.339,0,0,0,.339.34h3.19a.342.342,0,0,0,.131-.026.335.335,0,0,0,.11-.074.331.331,0,0,0,.074-.11.343.343,0,0,0,.026-.13V.39a.341.341,0,0,0-.026-.13.343.343,0,0,0-.184-.184.342.342,0,0,0-.131-.026h-2.73a.67.67,0,0,0-.56.2Z" fill="#090405"/>
  <path id="패스_393" data-name="패스 393" d="M95.86,0H93.53a.341.341,0,0,0-.3.19L89,8.951a6.4,6.4,0,0,0,2.47,1,7.111,7.111,0,0,0,1.3.09l1.92-4,1.42,2.93.82,1.7,1.7,3.53,1,2,1.75,3.65a.69.69,0,0,0,.61.38h3.69a.117.117,0,0,0,.054-.014.121.121,0,0,0,.042-.038.123.123,0,0,0,.02-.052.131.131,0,0,0-.006-.056L96.2.211A.341.341,0,0,0,95.86,0Z" fill="#090405"/>
  <path id="패스_394" data-name="패스 394" d="M86.223,14.74l-.68,1.41-1.88,3.9a.119.119,0,0,0-.006.053.121.121,0,0,0,.018.051.119.119,0,0,0,.038.038.123.123,0,0,0,.051.018h3.7a.659.659,0,0,0,.6-.38l1.08-2.24.54-1.09.24-.5A12.935,12.935,0,0,1,86.223,14.74Z" fill="#090405"/>
  <path id="패스_395" data-name="패스 395" d="M96.932,10.681a8.29,8.29,0,0,1-5.24,1.61h-.63a8.359,8.359,0,0,1-3.17-1,8.571,8.571,0,0,1-2.21-1.77.112.112,0,0,0-.085-.04.112.112,0,0,0-.047.011.108.108,0,0,0-.038.029l-2.2,2.68a.34.34,0,0,0,0,.45,12.254,12.254,0,0,0,2.88,2.12,12.942,12.942,0,0,0,3.69,1.24c.25,0,.5.08.75.1a12.179,12.179,0,0,0,1.34.08,12.118,12.118,0,0,0,6.64-2Z" fill="#8a6827"/>
</svg>
