<svg xmlns="http://www.w3.org/2000/svg" viewBox="0 0 91.41 43.62"  xmlns:v="https://vecta.io/nano"><radialGradient id="A" cx="-815.542" cy="631.071" gradientTransform="matrix(321.992 0 0 -198.8094 262663.9688 125474.4062)" gradientUnits="userSpaceOnUse" r=".113"><stop offset=".45" stop-color="#4b3687" stop-opacity=".5"/><stop offset="1" stop-color="#4b3687"/></radialGradient><linearGradient id="B" gradientUnits="userSpaceOnUse" x1="10.274" x2="41.706" y1="21.81" y2="21.81"><stop offset="0" stop-color="#343e8c"/><stop offset=".475" stop-color="#4b3687" stop-opacity=".8"/><stop offset=".569" stop-color="#523c8b" stop-opacity=".652"/><stop offset=".951" stop-color="#695299" stop-opacity=".05"/></linearGradient><g fill="url(#A)"><path d="m42.32 33.36v-8.42h3.15v-1.85h-8.58v1.85h3.15v8.42z"/><path d="M19.18 26.67c.09.23.36.86.89 1.57l3.7 5.11h2.07V23.07h-2.09v6.94h-.03c-.06-.25-.39-.84-.95-1.64l-3.64-5.3h-2.08v10.27h2.11v-6.68h.02z"/><path d="m68.14 23.09h2.27v10.27h-2.27z"/><path d="m74.97 23.07c-1.9 3.01-2.9 6.84-3.46 10.29h2.28c.12-.81.28-1.66.47-2.49h3.93c.2.83.35 1.67.45 2.49h2.5c-.6-3.52-1.56-7.14-3.48-10.29zm-.38 6.1c.41-1.56.95-3.03 1.62-4.37h.03c.68 1.35 1.21 2.84 1.61 4.37z"/><path d="m64.24 24.73c.66 0 1.4.19 2.07.55l.74-1.88c-.74-.33-1.67-.6-2.94-.6-3.45 0-5.09 2.66-5.09 5.53 0 3.03 1.97 5.27 5.09 5.27 1 0 2.21-.33 2.95-.71l-.61-1.76c-.51.3-1.24.55-2.05.55-1.62 0-3.03-1.27-3.03-3.41 0-1.62.73-3.54 2.87-3.54z"/><path d="m27.16 23.09v6.2c0 3.29 2.12 4.34 5.25 4.34 1.21 0 2.41-.13 3.59-.35v-10.19h-2.2v8.64c-.42.1-.85.16-1.28.16-1.6 0-3.09-.58-3.09-2.4v-6.4z"/><path d="m55.57 23.09h2.27v10.27h-2.27z"/><path d="m54.11 26c0-2.59-2.39-2.94-4.43-2.94h-3.33v10.27h2.27v-4.1h.71c.23 0 .45.04.68.51l1.89 3.63h2.72l-2.78-4.7c1.35-.29 2.27-1.26 2.27-2.67zm-4.25 1.57h-1.24v-2.72h1.11c.9 0 2.02.15 2.02 1.32 0 1.14-1.02 1.4-1.89 1.4z"/></g><path d="M14.48 33.35a14.3 14.3 0 0 1-1.82-6.99c0-8.11 6.77-14.69 15.12-14.69 6.25 0 11.61 3.68 13.92 8.93-2.43-6.06-8.28-10.33-15.11-10.33-9.01 0-16.32 7.44-16.32 16.61 0 2.29.46 4.48 1.28 6.47z" fill="url(#B)"/></svg>